<?xml version="1.0" encoding="UTF-8" standalone="no"?>
<!DOCTYPE svg PUBLIC "-//W3C//DTD SVG 1.1//EN" "http://www.w3.org/Graphics/SVG/1.1/DTD/svg11.dtd">
<svg width="100%" height="100%" viewBox="0 0 1000 500" version="1.1" xmlns="http://www.w3.org/2000/svg" xmlns:xlink="http://www.w3.org/1999/xlink" xml:space="preserve" xmlns:serif="http://www.serif.com/" style="fill-rule:evenodd;clip-rule:evenodd;stroke-linejoin:round;stroke-miterlimit:2;">
    <g id="layer1" transform="matrix(1.50123,0,0,1.50123,-18.9979,-433.39)">
        <g>
            <path id="path38" d="M445.923,391.401C437.64,391.401 435.914,395.537 435.914,400.658L435.914,404.634L431.603,404.634L431.603,410.664L435.914,410.664L435.914,433.678L444.367,433.678L444.367,410.664L449.774,410.664L449.774,404.634L444.367,404.634L444.367,401.236C444.367,399.735 444.367,397.435 448.741,397.435C449.431,397.435 449.658,397.494 450.524,397.606L450.524,391.689C448.107,391.401 446.496,391.401 445.923,391.401ZM486.4,392.091L486.4,433.678L494.903,433.678L494.903,392.091L486.4,392.091ZM502.181,392.147L502.181,399.562L511.265,399.562L511.265,392.147L502.181,392.147ZM577.562,392.147L577.562,433.678L586.129,433.678L586.073,415.901C586.073,411.355 589.123,409.977 591.539,409.977C596.32,409.977 596.319,414.634 596.319,416.305L596.319,433.678L604.766,433.678L604.766,416.017C604.766,412.216 603.908,409.572 602.876,408.137C601.492,406.356 598.736,404.23 594.418,404.23C589.122,404.23 586.99,407.216 586.013,408.595L586.013,392.147L577.562,392.147ZM290.205,392.263L300.33,433.792L310.454,433.792L318.565,402.037L326.1,433.792L335.994,433.792L346.577,392.263L338.063,392.263L331.333,423.384L324.028,392.263L313.963,392.263L305.853,423.384L299.409,392.263L290.205,392.263ZM458.675,392.435L458.675,399.219L464.538,399.219L464.538,392.435L458.675,392.435ZM468.572,392.435L468.572,399.219L474.435,399.219L474.435,392.435L468.572,392.435ZM421.683,395.946L413.234,399.052L413.234,404.747L407.656,404.747L407.656,410.381L413.234,410.381L413.234,426.374C413.234,428.792 413.234,434.196 421.799,434.196C423.176,434.196 425.652,434.026 428.411,433.275L428.411,427.7C427.378,427.816 426.803,427.874 425.536,427.874C421.738,427.874 421.738,426.199 421.683,423.541L421.683,410.381L428.582,410.381L428.582,404.747L421.683,404.747L421.683,395.946ZM362.033,403.654C358.866,403.654 356.106,404.572 353.862,406.069C348.979,409.459 347.826,415.103 347.826,419.812C347.826,424.473 348.918,428.392 351.561,431.148C354.608,434.314 359.331,434.772 361.8,434.772C366.065,434.772 369.863,433.621 371.987,431.381C374.342,428.909 374.63,426.433 374.743,425.052L366.986,425.052C366.178,428.279 364.051,429.083 361.917,429.083C355.988,429.083 355.989,423.21 355.989,421.309L375.493,421.309C375.609,418.894 375.722,414.64 373.766,410.664C371.123,405.263 366.178,403.654 362.033,403.654ZM625.29,403.654C622.128,403.654 619.362,404.572 617.121,406.069C612.236,409.459 611.09,415.103 611.09,419.812C611.09,424.473 612.179,428.392 614.827,431.148C617.87,434.314 622.59,434.772 625.066,434.772C629.321,434.772 633.122,433.621 635.247,431.381C637.6,428.909 637.891,426.433 638.003,425.052L630.242,425.052C629.44,428.279 627.307,429.083 625.181,429.083C619.245,429.083 619.245,423.21 619.245,421.309L638.752,421.309C638.867,418.894 638.983,414.64 637.03,410.664C634.382,405.263 629.441,403.654 625.29,403.654ZM466.439,403.77C463.672,403.77 460.278,404.231 457.635,406.124C454.587,408.309 454.42,411.415 454.356,412.966L462.695,412.966C462.695,412.281 462.695,411.361 463.329,410.381C464.079,409.289 465.346,408.767 466.555,408.767C467.36,408.767 469.601,409.055 470.35,411.188C470.697,412.223 470.757,413.144 470.757,415.045C467.93,415.045 462.811,415.046 459.242,416.655C453.899,419.124 453.097,423.38 453.097,425.686C453.097,427.988 453.898,430.348 455.621,432.069C456.773,433.162 458.671,434.367 462.87,434.367C464.477,434.367 468.336,434.367 471.562,429.714C471.562,430.573 471.562,431.894 471.849,433.678L479.553,433.678C479.034,431.26 478.859,428.789 478.859,426.312L478.803,414.634C478.803,413.311 478.744,409.859 476.786,407.503C473.918,404.171 468.855,403.77 466.438,403.77L466.439,403.77ZM392.944,403.942C385.406,403.942 380.235,407.387 380.235,413.027C380.235,418.952 385.234,420.392 387.589,421.087L392.886,422.521C396.229,423.443 396.92,424.476 396.92,425.802C396.92,427.528 395.478,429.254 392.426,429.254C388.857,429.254 387.706,427.125 387.589,425.286L379.6,425.286C379.658,426.666 379.834,428.967 381.727,430.977C384.37,433.738 387.933,434.538 391.676,434.538C400.711,434.538 405.019,429.542 405.019,424.535C405.019,420.565 402.55,417.86 397.263,416.418L392.021,414.983C389.491,414.291 388.05,413.887 388.05,411.935C388.05,410.147 389.776,409.055 392.085,409.055C393.406,409.055 395.995,409.289 396.229,412.508L403.989,412.508C403.759,406.699 398.93,403.942 392.944,403.942ZM530.04,403.942C522.504,403.942 517.333,407.387 517.333,413.027C517.333,418.952 522.329,420.392 524.689,421.087L529.985,422.521C533.326,423.443 534.016,424.476 534.016,425.802C534.016,427.528 532.577,429.254 529.526,429.254C525.958,429.254 524.805,427.125 524.689,425.286L516.698,425.286C516.758,426.666 516.93,428.967 518.823,430.977C521.468,433.738 525.037,434.538 528.774,434.538C537.808,434.538 542.123,429.542 542.123,424.535C542.123,420.565 539.647,417.86 534.363,416.418L529.123,414.983C526.587,414.291 525.148,413.887 525.148,411.935C525.148,410.147 526.878,409.055 529.176,409.055C530.499,409.055 533.095,409.289 533.326,412.508L541.083,412.508C540.859,406.699 536.029,403.942 530.04,403.942ZM559.764,404.058C555.905,404.058 546.187,405.897 546.187,419.127C546.187,423.788 547.34,427.646 549.867,430.577C552.511,433.563 555.905,434.426 559.764,434.426C563.393,434.426 565.977,433.504 568.047,431.723C571.38,428.908 571.663,425.398 571.782,423.156L563.393,423.156C563.043,428.334 560.398,428.737 559.473,428.737C558.839,428.737 557.979,428.62 557.173,427.758C555.212,425.631 555.04,420.45 555.04,418.84C555.04,415.675 555.499,409.571 559.533,409.571C562.81,409.571 563.158,413.887 563.274,414.925L571.608,414.925C571.549,407.044 565.168,404.058 559.764,404.058ZM502.468,404.575L502.468,433.678L510.974,433.678L510.974,404.575L502.468,404.575ZM361.745,409.458C366.698,409.458 366.812,414.641 366.812,415.967L356.276,415.967C356.451,412.569 358.005,409.458 361.745,409.458ZM625.006,409.458C629.959,409.458 630.072,414.641 630.072,415.967L619.537,415.967C619.712,412.569 621.263,409.458 625.006,409.458ZM468.783,419.913C469.414,419.903 470.073,419.926 470.757,419.983C470.757,423.096 470.642,425.344 469.146,427.182C468.337,428.104 467.073,428.853 465.518,428.853C462.695,428.853 461.368,426.665 461.368,424.709C461.368,421.686 464.368,419.984 468.783,419.913ZM297.468,453.224L297.468,494.811L306.377,494.811L306.377,476.57L322.206,476.57L322.206,494.811L331.114,494.811L331.114,453.224L322.091,453.224L322.091,469.848L306.377,469.848L306.377,453.224L297.468,453.224ZM568.36,453.224L568.36,494.811L576.863,494.811L576.863,453.224L568.36,453.224ZM404.152,453.279L404.152,494.811L412.717,494.811L412.666,477.033C412.666,472.488 415.713,471.107 418.128,471.107C422.913,471.107 422.913,475.765 422.913,477.436L422.913,494.811L431.361,494.811L431.361,477.149C431.361,473.348 430.495,470.702 429.463,469.269C428.086,467.488 425.324,465.36 421.009,465.36C415.714,465.36 413.584,468.348 412.605,469.728L412.605,453.279L404.152,453.279ZM498.274,453.279L498.274,494.811L506.839,494.811L506.779,477.033C506.779,472.488 509.83,471.107 512.25,471.107C517.027,471.107 517.027,475.765 517.027,477.436L517.027,494.811L525.476,494.811L525.476,477.149C525.476,473.348 524.615,470.702 523.578,469.269C522.206,467.488 519.447,465.36 515.129,465.36C509.83,465.36 507.701,468.348 506.72,469.728L506.72,453.279L498.274,453.279ZM597.462,464.786C594.295,464.786 591.535,465.702 589.29,467.2C584.402,470.59 583.254,476.235 583.254,480.944C583.254,485.604 584.347,489.519 586.99,492.28C590.037,495.444 594.754,495.903 597.23,495.903C601.489,495.903 605.284,494.752 607.413,492.513C609.771,490.04 610.057,487.563 610.172,486.183L602.416,486.183C601.607,489.41 599.471,490.215 597.346,490.215C591.416,490.215 591.416,484.342 591.416,482.44L610.923,482.44C611.034,480.026 611.15,475.773 609.196,471.797C606.551,466.396 601.608,464.786 597.462,464.786ZM352.682,465.073C341.231,465.073 337.669,473.526 337.669,480.547C337.669,490.73 344.223,495.845 352.507,495.845C363.035,495.845 367.75,488.489 367.75,480.313C367.75,472.2 363.209,465.073 352.682,465.073ZM450.553,465.073C443.013,465.073 437.845,468.518 437.845,474.16C437.845,480.085 442.846,481.523 445.199,482.211L450.498,483.653C453.839,484.575 454.528,485.609 454.528,486.935C454.528,488.661 453.089,490.386 450.035,490.386C446.467,490.386 445.318,488.255 445.199,486.413L437.211,486.413C437.267,487.797 437.442,490.099 439.336,492.109C441.981,494.869 445.545,495.67 449.29,495.67C458.321,495.67 462.632,490.674 462.632,485.667C462.632,481.698 460.16,478.992 454.872,477.549L449.637,476.115C447.101,475.423 445.658,475.019 445.658,473.066C445.658,471.279 447.387,470.186 449.692,470.186C451.015,470.186 453.608,470.419 453.839,473.638L461.602,473.638C461.368,467.83 456.538,465.073 450.553,465.073ZM386.257,465.189C382.398,465.189 372.681,467.028 372.681,480.259C372.681,484.92 373.832,488.776 376.36,491.708C379.003,494.694 382.398,495.557 386.257,495.557C389.885,495.557 392.47,494.636 394.539,492.855C397.871,490.041 398.158,486.529 398.275,484.286L389.884,484.286C389.535,489.465 386.891,489.869 385.966,489.869C385.332,489.869 384.469,489.753 383.665,488.889C381.706,486.763 381.534,481.581 381.534,479.97C381.534,476.807 381.993,470.703 386.024,470.703C389.306,470.703 389.651,475.019 389.767,476.057L398.1,476.057C398.042,468.176 391.662,465.189 386.257,465.189ZM480.37,465.189C476.519,465.189 466.797,467.028 466.797,480.259C466.797,484.92 467.95,488.776 470.481,491.708C473.126,494.694 476.519,495.557 480.37,495.557C483.999,495.557 486.586,494.636 488.66,492.855C491.99,490.041 492.277,486.529 492.397,484.286L483.999,484.286C483.657,489.465 481.005,489.869 480.087,489.869C479.45,489.869 478.584,489.753 477.786,488.889C475.825,486.763 475.649,481.581 475.649,479.97C475.649,476.807 476.108,470.703 480.142,470.703C483.424,470.703 483.768,475.019 483.88,476.057L492.222,476.057C492.163,468.176 485.782,465.189 480.37,465.189ZM532.92,465.765L532.92,483.828C532.92,485.267 532.92,489.293 534.813,491.65C536.425,493.776 539.643,495.557 543.555,495.557C549.082,495.557 551.274,492.226 552.131,490.961L552.419,494.811L560.696,494.811C560.58,494.002 560.525,493.488 560.466,492.684C560.466,491.937 560.413,491.187 560.297,484.921L560.297,465.765L551.558,465.765L551.558,480.434C551.558,485.382 551.558,489.465 546.086,489.465C541.537,489.465 541.538,485.612 541.538,483.081L541.538,465.765L532.92,465.765ZM597.174,470.59C602.122,470.59 602.241,475.773 602.241,477.097L591.7,477.097C591.879,473.701 593.43,470.59 597.174,470.59ZM352.682,470.762C358.319,470.762 359.07,476.114 359.07,479.97C359.07,487.684 356.535,489.927 352.796,489.927C348.592,489.927 346.408,487.105 346.408,480.601C346.408,477.954 346.464,470.762 352.682,470.762Z" style="fill-rule:nonzero;"/>
            <path id="path46" d="M115.783,388.564L108.086,452.278L107.919,452.379L101.259,397.441L85.158,407.288L77.703,471.643L77.539,471.745L70.629,416.17L52.622,427.18L68.449,513.018L86.212,502.155L93.074,439.764L93.238,439.662L98.996,494.344L116.84,483.434L133.713,377.61L115.783,388.564ZM158.98,458.417L186.163,475.619L165.975,487.757L138.787,470.551L117.253,483.497L195.196,532.828L216.731,519.879L185.941,500.396L206.13,488.259L236.919,507.742L258.458,494.796L180.515,445.468L158.98,458.417Z" style="fill:rgb(113,177,39);fill-rule:nonzero;stroke:rgb(113,177,39);stroke-width:0.67px;"/>
        </g>
    </g>
</svg>
