<?xml version="1.0" standalone="no"?>
<svg xmlns="http://www.w3.org/2000/svg" width="500" height="500"><defs><clipPath id="clip-path-dot-color"><rect x="24" y="112" width="11" height="11" transform="rotate(0,29.5,117.5)"/><rect x="24" y="123" width="11" height="11" transform="rotate(0,29.5,128.5)"/><rect x="24" y="134" width="11" height="11" transform="rotate(0,29.5,139.5)"/><rect x="24" y="145" width="11" height="11" transform="rotate(0,29.5,150.5)"/><rect x="24" y="156" width="11" height="11" transform="rotate(0,29.5,161.5)"/><rect x="24" y="167" width="11" height="11" transform="rotate(0,29.5,172.5)"/><rect x="24" y="189" width="11" height="11" transform="rotate(0,29.5,194.5)"/><rect x="24" y="200" width="11" height="11" transform="rotate(0,29.5,205.5)"/><rect x="24" y="222" width="11" height="11" transform="rotate(0,29.5,227.5)"/><rect x="24" y="244" width="11" height="11" transform="rotate(0,29.5,249.5)"/><rect x="24" y="299" width="11" height="11" transform="rotate(0,29.5,304.5)"/><rect x="24" y="332" width="11" height="11" transform="rotate(0,29.5,337.5)"/><rect x="24" y="354" width="11" height="11" transform="rotate(0,29.5,359.5)"/><rect x="24" y="365" width="11" height="11" transform="rotate(0,29.5,370.5)"/><rect x="35" y="112" width="11" height="11" transform="rotate(0,40.5,117.5)"/><rect x="35" y="123" width="11" height="11" transform="rotate(0,40.5,128.5)"/><rect x="35" y="145" width="11" height="11" transform="rotate(0,40.5,150.5)"/><rect x="35" y="156" width="11" height="11" transform="rotate(0,40.5,161.5)"/><rect x="35" y="189" width="11" height="11" transform="rotate(0,40.5,194.5)"/><rect x="35" y="222" width="11" height="11" transform="rotate(0,40.5,227.5)"/><rect x="35" y="233" width="11" height="11" transform="rotate(0,40.5,238.5)"/><rect x="35" y="266" width="11" height="11" transform="rotate(0,40.5,271.5)"/><rect x="35" y="277" width="11" height="11" transform="rotate(0,40.5,282.5)"/><rect x="35" y="288" width="11" height="11" transform="rotate(0,40.5,293.5)"/><rect x="35" y="343" width="11" height="11" transform="rotate(0,40.5,348.5)"/><rect x="35" y="376" width="11" height="11" transform="rotate(0,40.5,381.5)"/><rect x="46" y="123" width="11" height="11" transform="rotate(0,51.5,128.5)"/><rect x="46" y="134" width="11" height="11" transform="rotate(0,51.5,139.5)"/><rect x="46" y="167" width="11" height="11" transform="rotate(0,51.5,172.5)"/><rect x="46" y="200" width="11" height="11" transform="rotate(0,51.5,205.5)"/><rect x="46" y="211" width="11" height="11" transform="rotate(0,51.5,216.5)"/><rect x="46" y="222" width="11" height="11" transform="rotate(0,51.5,227.5)"/><rect x="46" y="233" width="11" height="11" transform="rotate(0,51.5,238.5)"/><rect x="46" y="244" width="11" height="11" transform="rotate(0,51.5,249.5)"/><rect x="46" y="277" width="11" height="11" transform="rotate(0,51.5,282.5)"/><rect x="46" y="310" width="11" height="11" transform="rotate(0,51.5,315.5)"/><rect x="46" y="321" width="11" height="11" transform="rotate(0,51.5,326.5)"/><rect x="46" y="343" width="11" height="11" transform="rotate(0,51.5,348.5)"/><rect x="46" y="354" width="11" height="11" transform="rotate(0,51.5,359.5)"/><rect x="46" y="365" width="11" height="11" transform="rotate(0,51.5,370.5)"/><rect x="46" y="376" width="11" height="11" transform="rotate(0,51.5,381.5)"/><rect x="57" y="167" width="11" height="11" transform="rotate(0,62.5,172.5)"/><rect x="57" y="222" width="11" height="11" transform="rotate(0,62.5,227.5)"/><rect x="57" y="233" width="11" height="11" transform="rotate(0,62.5,238.5)"/><rect x="57" y="255" width="11" height="11" transform="rotate(0,62.5,260.5)"/><rect x="57" y="310" width="11" height="11" transform="rotate(0,62.5,315.5)"/><rect x="57" y="332" width="11" height="11" transform="rotate(0,62.5,337.5)"/><rect x="57" y="376" width="11" height="11" transform="rotate(0,62.5,381.5)"/><rect x="68" y="123" width="11" height="11" transform="rotate(0,73.5,128.5)"/><rect x="68" y="178" width="11" height="11" transform="rotate(0,73.5,183.5)"/><rect x="68" y="200" width="11" height="11" transform="rotate(0,73.5,205.5)"/><rect x="68" y="222" width="11" height="11" transform="rotate(0,73.5,227.5)"/><rect x="68" y="233" width="11" height="11" transform="rotate(0,73.5,238.5)"/><rect x="68" y="255" width="11" height="11" transform="rotate(0,73.5,260.5)"/><rect x="68" y="277" width="11" height="11" transform="rotate(0,73.5,282.5)"/><rect x="68" y="310" width="11" height="11" transform="rotate(0,73.5,315.5)"/><rect x="68" y="332" width="11" height="11" transform="rotate(0,73.5,337.5)"/><rect x="68" y="354" width="11" height="11" transform="rotate(0,73.5,359.5)"/><rect x="68" y="365" width="11" height="11" transform="rotate(0,73.5,370.5)"/><rect x="68" y="376" width="11" height="11" transform="rotate(0,73.5,381.5)"/><rect x="79" y="123" width="11" height="11" transform="rotate(0,84.5,128.5)"/><rect x="79" y="134" width="11" height="11" transform="rotate(0,84.5,139.5)"/><rect x="79" y="156" width="11" height="11" transform="rotate(0,84.5,161.5)"/><rect x="79" y="200" width="11" height="11" transform="rotate(0,84.5,205.5)"/><rect x="79" y="211" width="11" height="11" transform="rotate(0,84.5,216.5)"/><rect x="79" y="244" width="11" height="11" transform="rotate(0,84.5,249.5)"/><rect x="79" y="266" width="11" height="11" transform="rotate(0,84.5,271.5)"/><rect x="79" y="288" width="11" height="11" transform="rotate(0,84.5,293.5)"/><rect x="79" y="332" width="11" height="11" transform="rotate(0,84.5,337.5)"/><rect x="79" y="343" width="11" height="11" transform="rotate(0,84.5,348.5)"/><rect x="90" y="112" width="11" height="11" transform="rotate(0,95.5,117.5)"/><rect x="90" y="134" width="11" height="11" transform="rotate(0,95.5,139.5)"/><rect x="90" y="156" width="11" height="11" transform="rotate(0,95.5,161.5)"/><rect x="90" y="178" width="11" height="11" transform="rotate(0,95.5,183.5)"/><rect x="90" y="200" width="11" height="11" transform="rotate(0,95.5,205.5)"/><rect x="90" y="222" width="11" height="11" transform="rotate(0,95.5,227.5)"/><rect x="90" y="244" width="11" height="11" transform="rotate(0,95.5,249.5)"/><rect x="90" y="266" width="11" height="11" transform="rotate(0,95.5,271.5)"/><rect x="90" y="288" width="11" height="11" transform="rotate(0,95.5,293.5)"/><rect x="90" y="310" width="11" height="11" transform="rotate(0,95.5,315.5)"/><rect x="90" y="332" width="11" height="11" transform="rotate(0,95.5,337.5)"/><rect x="90" y="354" width="11" height="11" transform="rotate(0,95.5,359.5)"/><rect x="90" y="376" width="11" height="11" transform="rotate(0,95.5,381.5)"/><rect x="101" y="134" width="11" height="11" transform="rotate(0,106.5,139.5)"/><rect x="101" y="145" width="11" height="11" transform="rotate(0,106.5,150.5)"/><rect x="101" y="156" width="11" height="11" transform="rotate(0,106.5,161.5)"/><rect x="101" y="167" width="11" height="11" transform="rotate(0,106.5,172.5)"/><rect x="101" y="178" width="11" height="11" transform="rotate(0,106.5,183.5)"/><rect x="101" y="200" width="11" height="11" transform="rotate(0,106.5,205.5)"/><rect x="101" y="222" width="11" height="11" transform="rotate(0,106.5,227.5)"/><rect x="101" y="233" width="11" height="11" transform="rotate(0,106.5,238.5)"/><rect x="101" y="244" width="11" height="11" transform="rotate(0,106.5,249.5)"/><rect x="101" y="255" width="11" height="11" transform="rotate(0,106.5,260.5)"/><rect x="101" y="266" width="11" height="11" transform="rotate(0,106.5,271.5)"/><rect x="101" y="277" width="11" height="11" transform="rotate(0,106.5,282.5)"/><rect x="101" y="310" width="11" height="11" transform="rotate(0,106.5,315.5)"/><rect x="101" y="376" width="11" height="11" transform="rotate(0,106.5,381.5)"/><rect x="112" y="35" width="11" height="11" transform="rotate(0,117.5,40.5)"/><rect x="112" y="90" width="11" height="11" transform="rotate(0,117.5,95.5)"/><rect x="112" y="101" width="11" height="11" transform="rotate(0,117.5,106.5)"/><rect x="112" y="112" width="11" height="11" transform="rotate(0,117.5,117.5)"/><rect x="112" y="178" width="11" height="11" transform="rotate(0,117.5,183.5)"/><rect x="112" y="211" width="11" height="11" transform="rotate(0,117.5,216.5)"/><rect x="112" y="222" width="11" height="11" transform="rotate(0,117.5,227.5)"/><rect x="112" y="233" width="11" height="11" transform="rotate(0,117.5,238.5)"/><rect x="112" y="266" width="11" height="11" transform="rotate(0,117.5,271.5)"/><rect x="112" y="277" width="11" height="11" transform="rotate(0,117.5,282.5)"/><rect x="112" y="299" width="11" height="11" transform="rotate(0,117.5,304.5)"/><rect x="112" y="310" width="11" height="11" transform="rotate(0,117.5,315.5)"/><rect x="112" y="343" width="11" height="11" transform="rotate(0,117.5,348.5)"/><rect x="112" y="387" width="11" height="11" transform="rotate(0,117.5,392.5)"/><rect x="112" y="453" width="11" height="11" transform="rotate(0,117.5,458.5)"/><rect x="112" y="464" width="11" height="11" transform="rotate(0,117.5,469.5)"/><rect x="123" y="35" width="11" height="11" transform="rotate(0,128.5,40.5)"/><rect x="123" y="68" width="11" height="11" transform="rotate(0,128.5,73.5)"/><rect x="123" y="79" width="11" height="11" transform="rotate(0,128.5,84.5)"/><rect x="123" y="112" width="11" height="11" transform="rotate(0,128.5,117.5)"/><rect x="123" y="123" width="11" height="11" transform="rotate(0,128.5,128.5)"/><rect x="123" y="145" width="11" height="11" transform="rotate(0,128.5,150.5)"/><rect x="123" y="167" width="11" height="11" transform="rotate(0,128.5,172.5)"/><rect x="123" y="178" width="11" height="11" transform="rotate(0,128.5,183.5)"/><rect x="123" y="200" width="11" height="11" transform="rotate(0,128.5,205.5)"/><rect x="123" y="233" width="11" height="11" transform="rotate(0,128.5,238.5)"/><rect x="123" y="244" width="11" height="11" transform="rotate(0,128.5,249.5)"/><rect x="123" y="266" width="11" height="11" transform="rotate(0,128.5,271.5)"/><rect x="123" y="277" width="11" height="11" transform="rotate(0,128.5,282.5)"/><rect x="123" y="299" width="11" height="11" transform="rotate(0,128.5,304.5)"/><rect x="123" y="310" width="11" height="11" transform="rotate(0,128.5,315.5)"/><rect x="123" y="321" width="11" height="11" transform="rotate(0,128.5,326.5)"/><rect x="123" y="343" width="11" height="11" transform="rotate(0,128.5,348.5)"/><rect x="123" y="354" width="11" height="11" transform="rotate(0,128.5,359.5)"/><rect x="123" y="365" width="11" height="11" transform="rotate(0,128.5,370.5)"/><rect x="123" y="398" width="11" height="11" transform="rotate(0,128.5,403.5)"/><rect x="123" y="409" width="11" height="11" transform="rotate(0,128.5,414.5)"/><rect x="123" y="420" width="11" height="11" transform="rotate(0,128.5,425.5)"/><rect x="134" y="24" width="11" height="11" transform="rotate(0,139.5,29.5)"/><rect x="134" y="35" width="11" height="11" transform="rotate(0,139.5,40.5)"/><rect x="134" y="90" width="11" height="11" transform="rotate(0,139.5,95.5)"/><rect x="134" y="101" width="11" height="11" transform="rotate(0,139.5,106.5)"/><rect x="134" y="123" width="11" height="11" transform="rotate(0,139.5,128.5)"/><rect x="134" y="134" width="11" height="11" transform="rotate(0,139.5,139.5)"/><rect x="134" y="178" width="11" height="11" transform="rotate(0,139.5,183.5)"/><rect x="134" y="189" width="11" height="11" transform="rotate(0,139.5,194.5)"/><rect x="134" y="211" width="11" height="11" transform="rotate(0,139.5,216.5)"/><rect x="134" y="222" width="11" height="11" transform="rotate(0,139.5,227.5)"/><rect x="134" y="244" width="11" height="11" transform="rotate(0,139.5,249.5)"/><rect x="134" y="266" width="11" height="11" transform="rotate(0,139.5,271.5)"/><rect x="134" y="277" width="11" height="11" transform="rotate(0,139.5,282.5)"/><rect x="134" y="288" width="11" height="11" transform="rotate(0,139.5,293.5)"/><rect x="134" y="299" width="11" height="11" transform="rotate(0,139.5,304.5)"/><rect x="134" y="310" width="11" height="11" transform="rotate(0,139.5,315.5)"/><rect x="134" y="321" width="11" height="11" transform="rotate(0,139.5,326.5)"/><rect x="134" y="354" width="11" height="11" transform="rotate(0,139.5,359.5)"/><rect x="134" y="376" width="11" height="11" transform="rotate(0,139.5,381.5)"/><rect x="134" y="387" width="11" height="11" transform="rotate(0,139.5,392.5)"/><rect x="134" y="398" width="11" height="11" transform="rotate(0,139.5,403.5)"/><rect x="145" y="79" width="11" height="11" transform="rotate(0,150.5,84.5)"/><rect x="145" y="112" width="11" height="11" transform="rotate(0,150.5,117.5)"/><rect x="145" y="145" width="11" height="11" transform="rotate(0,150.5,150.5)"/><rect x="145" y="156" width="11" height="11" transform="rotate(0,150.5,161.5)"/><rect x="145" y="178" width="11" height="11" transform="rotate(0,150.5,183.5)"/><rect x="145" y="200" width="11" height="11" transform="rotate(0,150.5,205.5)"/><rect x="145" y="233" width="11" height="11" transform="rotate(0,150.5,238.5)"/><rect x="145" y="244" width="11" height="11" transform="rotate(0,150.5,249.5)"/><rect x="145" y="266" width="11" height="11" transform="rotate(0,150.5,271.5)"/><rect x="145" y="277" width="11" height="11" transform="rotate(0,150.5,282.5)"/><rect x="145" y="310" width="11" height="11" transform="rotate(0,150.5,315.5)"/><rect x="145" y="354" width="11" height="11" transform="rotate(0,150.5,359.5)"/><rect x="145" y="365" width="11" height="11" transform="rotate(0,150.5,370.5)"/><rect x="145" y="376" width="11" height="11" transform="rotate(0,150.5,381.5)"/><rect x="145" y="409" width="11" height="11" transform="rotate(0,150.5,414.5)"/><rect x="145" y="420" width="11" height="11" transform="rotate(0,150.5,425.5)"/><rect x="145" y="431" width="11" height="11" transform="rotate(0,150.5,436.5)"/><rect x="156" y="24" width="11" height="11" transform="rotate(0,161.5,29.5)"/><rect x="156" y="46" width="11" height="11" transform="rotate(0,161.5,51.5)"/><rect x="156" y="57" width="11" height="11" transform="rotate(0,161.5,62.5)"/><rect x="156" y="68" width="11" height="11" transform="rotate(0,161.5,73.5)"/><rect x="156" y="90" width="11" height="11" transform="rotate(0,161.5,95.5)"/><rect x="156" y="123" width="11" height="11" transform="rotate(0,161.5,128.5)"/><rect x="156" y="145" width="11" height="11" transform="rotate(0,161.5,150.5)"/><rect x="156" y="167" width="11" height="11" transform="rotate(0,161.5,172.5)"/><rect x="156" y="178" width="11" height="11" transform="rotate(0,161.5,183.5)"/><rect x="156" y="200" width="11" height="11" transform="rotate(0,161.5,205.5)"/><rect x="156" y="211" width="11" height="11" transform="rotate(0,161.5,216.5)"/><rect x="156" y="222" width="11" height="11" transform="rotate(0,161.5,227.5)"/><rect x="156" y="255" width="11" height="11" transform="rotate(0,161.5,260.5)"/><rect x="156" y="266" width="11" height="11" transform="rotate(0,161.5,271.5)"/><rect x="156" y="277" width="11" height="11" transform="rotate(0,161.5,282.5)"/><rect x="156" y="310" width="11" height="11" transform="rotate(0,161.5,315.5)"/><rect x="156" y="321" width="11" height="11" transform="rotate(0,161.5,326.5)"/><rect x="156" y="332" width="11" height="11" transform="rotate(0,161.5,337.5)"/><rect x="156" y="376" width="11" height="11" transform="rotate(0,161.5,381.5)"/><rect x="156" y="398" width="11" height="11" transform="rotate(0,161.5,403.5)"/><rect x="156" y="409" width="11" height="11" transform="rotate(0,161.5,414.5)"/><rect x="156" y="464" width="11" height="11" transform="rotate(0,161.5,469.5)"/><rect x="167" y="24" width="11" height="11" transform="rotate(0,172.5,29.5)"/><rect x="167" y="57" width="11" height="11" transform="rotate(0,172.5,62.5)"/><rect x="167" y="79" width="11" height="11" transform="rotate(0,172.5,84.5)"/><rect x="167" y="112" width="11" height="11" transform="rotate(0,172.5,117.5)"/><rect x="167" y="123" width="11" height="11" transform="rotate(0,172.5,128.5)"/><rect x="167" y="156" width="11" height="11" transform="rotate(0,172.5,161.5)"/><rect x="167" y="167" width="11" height="11" transform="rotate(0,172.5,172.5)"/><rect x="167" y="178" width="11" height="11" transform="rotate(0,172.5,183.5)"/><rect x="167" y="189" width="11" height="11" transform="rotate(0,172.5,194.5)"/><rect x="167" y="233" width="11" height="11" transform="rotate(0,172.5,238.5)"/><rect x="167" y="244" width="11" height="11" transform="rotate(0,172.5,249.5)"/><rect x="167" y="255" width="11" height="11" transform="rotate(0,172.5,260.5)"/><rect x="167" y="266" width="11" height="11" transform="rotate(0,172.5,271.5)"/><rect x="167" y="288" width="11" height="11" transform="rotate(0,172.5,293.5)"/><rect x="167" y="332" width="11" height="11" transform="rotate(0,172.5,337.5)"/><rect x="167" y="343" width="11" height="11" transform="rotate(0,172.5,348.5)"/><rect x="167" y="387" width="11" height="11" transform="rotate(0,172.5,392.5)"/><rect x="167" y="398" width="11" height="11" transform="rotate(0,172.5,403.5)"/><rect x="167" y="420" width="11" height="11" transform="rotate(0,172.5,425.5)"/><rect x="167" y="431" width="11" height="11" transform="rotate(0,172.5,436.5)"/><rect x="167" y="442" width="11" height="11" transform="rotate(0,172.5,447.5)"/><rect x="167" y="453" width="11" height="11" transform="rotate(0,172.5,458.5)"/><rect x="167" y="464" width="11" height="11" transform="rotate(0,172.5,469.5)"/><rect x="178" y="46" width="11" height="11" transform="rotate(0,183.5,51.5)"/><rect x="178" y="57" width="11" height="11" transform="rotate(0,183.5,62.5)"/><rect x="178" y="68" width="11" height="11" transform="rotate(0,183.5,73.5)"/><rect x="178" y="79" width="11" height="11" transform="rotate(0,183.5,84.5)"/><rect x="178" y="90" width="11" height="11" transform="rotate(0,183.5,95.5)"/><rect x="178" y="112" width="11" height="11" transform="rotate(0,183.5,117.5)"/><rect x="178" y="123" width="11" height="11" transform="rotate(0,183.5,128.5)"/><rect x="178" y="134" width="11" height="11" transform="rotate(0,183.5,139.5)"/><rect x="178" y="167" width="11" height="11" transform="rotate(0,183.5,172.5)"/><rect x="178" y="189" width="11" height="11" transform="rotate(0,183.5,194.5)"/><rect x="178" y="200" width="11" height="11" transform="rotate(0,183.5,205.5)"/><rect x="178" y="211" width="11" height="11" transform="rotate(0,183.5,216.5)"/><rect x="178" y="233" width="11" height="11" transform="rotate(0,183.5,238.5)"/><rect x="178" y="299" width="11" height="11" transform="rotate(0,183.5,304.5)"/><rect x="178" y="354" width="11" height="11" transform="rotate(0,183.5,359.5)"/><rect x="178" y="387" width="11" height="11" transform="rotate(0,183.5,392.5)"/><rect x="178" y="431" width="11" height="11" transform="rotate(0,183.5,436.5)"/><rect x="189" y="46" width="11" height="11" transform="rotate(0,194.5,51.5)"/><rect x="189" y="57" width="11" height="11" transform="rotate(0,194.5,62.5)"/><rect x="189" y="101" width="11" height="11" transform="rotate(0,194.5,106.5)"/><rect x="189" y="123" width="11" height="11" transform="rotate(0,194.5,128.5)"/><rect x="189" y="134" width="11" height="11" transform="rotate(0,194.5,139.5)"/><rect x="189" y="145" width="11" height="11" transform="rotate(0,194.5,150.5)"/><rect x="189" y="156" width="11" height="11" transform="rotate(0,194.5,161.5)"/><rect x="189" y="167" width="11" height="11" transform="rotate(0,194.5,172.5)"/><rect x="189" y="178" width="11" height="11" transform="rotate(0,194.5,183.5)"/><rect x="189" y="189" width="11" height="11" transform="rotate(0,194.5,194.5)"/><rect x="189" y="200" width="11" height="11" transform="rotate(0,194.5,205.5)"/><rect x="189" y="288" width="11" height="11" transform="rotate(0,194.5,293.5)"/><rect x="189" y="310" width="11" height="11" transform="rotate(0,194.5,315.5)"/><rect x="189" y="321" width="11" height="11" transform="rotate(0,194.5,326.5)"/><rect x="189" y="387" width="11" height="11" transform="rotate(0,194.5,392.5)"/><rect x="189" y="420" width="11" height="11" transform="rotate(0,194.5,425.5)"/><rect x="189" y="431" width="11" height="11" transform="rotate(0,194.5,436.5)"/><rect x="189" y="442" width="11" height="11" transform="rotate(0,194.5,447.5)"/><rect x="189" y="453" width="11" height="11" transform="rotate(0,194.5,458.5)"/><rect x="189" y="464" width="11" height="11" transform="rotate(0,194.5,469.5)"/><rect x="200" y="24" width="11" height="11" transform="rotate(0,205.5,29.5)"/><rect x="200" y="35" width="11" height="11" transform="rotate(0,205.5,40.5)"/><rect x="200" y="57" width="11" height="11" transform="rotate(0,205.5,62.5)"/><rect x="200" y="90" width="11" height="11" transform="rotate(0,205.5,95.5)"/><rect x="200" y="123" width="11" height="11" transform="rotate(0,205.5,128.5)"/><rect x="200" y="134" width="11" height="11" transform="rotate(0,205.5,139.5)"/><rect x="200" y="167" width="11" height="11" transform="rotate(0,205.5,172.5)"/><rect x="200" y="189" width="11" height="11" transform="rotate(0,205.5,194.5)"/><rect x="200" y="244" width="11" height="11" transform="rotate(0,205.5,249.5)"/><rect x="200" y="255" width="11" height="11" transform="rotate(0,205.5,260.5)"/><rect x="200" y="266" width="11" height="11" transform="rotate(0,205.5,271.5)"/><rect x="200" y="288" width="11" height="11" transform="rotate(0,205.5,293.5)"/><rect x="200" y="299" width="11" height="11" transform="rotate(0,205.5,304.5)"/><rect x="200" y="332" width="11" height="11" transform="rotate(0,205.5,337.5)"/><rect x="200" y="365" width="11" height="11" transform="rotate(0,205.5,370.5)"/><rect x="200" y="387" width="11" height="11" transform="rotate(0,205.5,392.5)"/><rect x="200" y="409" width="11" height="11" transform="rotate(0,205.5,414.5)"/><rect x="200" y="442" width="11" height="11" transform="rotate(0,205.5,447.5)"/><rect x="200" y="453" width="11" height="11" transform="rotate(0,205.5,458.5)"/><rect x="211" y="46" width="11" height="11" transform="rotate(0,216.5,51.5)"/><rect x="211" y="79" width="11" height="11" transform="rotate(0,216.5,84.5)"/><rect x="211" y="101" width="11" height="11" transform="rotate(0,216.5,106.5)"/><rect x="211" y="167" width="11" height="11" transform="rotate(0,216.5,172.5)"/><rect x="211" y="189" width="11" height="11" transform="rotate(0,216.5,194.5)"/><rect x="211" y="222" width="11" height="11" transform="rotate(0,216.5,227.5)"/><rect x="211" y="233" width="11" height="11" transform="rotate(0,216.5,238.5)"/><rect x="211" y="255" width="11" height="11" transform="rotate(0,216.5,260.5)"/><rect x="211" y="266" width="11" height="11" transform="rotate(0,216.5,271.5)"/><rect x="211" y="277" width="11" height="11" transform="rotate(0,216.5,282.5)"/><rect x="211" y="299" width="11" height="11" transform="rotate(0,216.5,304.5)"/><rect x="211" y="310" width="11" height="11" transform="rotate(0,216.5,315.5)"/><rect x="211" y="321" width="11" height="11" transform="rotate(0,216.5,326.5)"/><rect x="211" y="376" width="11" height="11" transform="rotate(0,216.5,381.5)"/><rect x="211" y="387" width="11" height="11" transform="rotate(0,216.5,392.5)"/><rect x="211" y="398" width="11" height="11" transform="rotate(0,216.5,403.5)"/><rect x="211" y="409" width="11" height="11" transform="rotate(0,216.5,414.5)"/><rect x="211" y="420" width="11" height="11" transform="rotate(0,216.5,425.5)"/><rect x="211" y="464" width="11" height="11" transform="rotate(0,216.5,469.5)"/><rect x="222" y="35" width="11" height="11" transform="rotate(0,227.5,40.5)"/><rect x="222" y="46" width="11" height="11" transform="rotate(0,227.5,51.5)"/><rect x="222" y="57" width="11" height="11" transform="rotate(0,227.5,62.5)"/><rect x="222" y="90" width="11" height="11" transform="rotate(0,227.5,95.5)"/><rect x="222" y="101" width="11" height="11" transform="rotate(0,227.5,106.5)"/><rect x="222" y="112" width="11" height="11" transform="rotate(0,227.5,117.5)"/><rect x="222" y="134" width="11" height="11" transform="rotate(0,227.5,139.5)"/><rect x="222" y="145" width="11" height="11" transform="rotate(0,227.5,150.5)"/><rect x="222" y="178" width="11" height="11" transform="rotate(0,227.5,183.5)"/><rect x="222" y="255" width="11" height="11" transform="rotate(0,227.5,260.5)"/><rect x="222" y="266" width="11" height="11" transform="rotate(0,227.5,271.5)"/><rect x="222" y="277" width="11" height="11" transform="rotate(0,227.5,282.5)"/><rect x="222" y="321" width="11" height="11" transform="rotate(0,227.5,326.5)"/><rect x="222" y="332" width="11" height="11" transform="rotate(0,227.5,337.5)"/><rect x="222" y="343" width="11" height="11" transform="rotate(0,227.5,348.5)"/><rect x="222" y="354" width="11" height="11" transform="rotate(0,227.5,359.5)"/><rect x="222" y="365" width="11" height="11" transform="rotate(0,227.5,370.5)"/><rect x="222" y="409" width="11" height="11" transform="rotate(0,227.5,414.5)"/><rect x="222" y="420" width="11" height="11" transform="rotate(0,227.5,425.5)"/><rect x="222" y="431" width="11" height="11" transform="rotate(0,227.5,436.5)"/><rect x="222" y="453" width="11" height="11" transform="rotate(0,227.5,458.5)"/><rect x="222" y="464" width="11" height="11" transform="rotate(0,227.5,469.5)"/><rect x="233" y="46" width="11" height="11" transform="rotate(0,238.5,51.5)"/><rect x="233" y="57" width="11" height="11" transform="rotate(0,238.5,62.5)"/><rect x="233" y="68" width="11" height="11" transform="rotate(0,238.5,73.5)"/><rect x="233" y="101" width="11" height="11" transform="rotate(0,238.5,106.5)"/><rect x="233" y="112" width="11" height="11" transform="rotate(0,238.5,117.5)"/><rect x="233" y="123" width="11" height="11" transform="rotate(0,238.5,128.5)"/><rect x="233" y="134" width="11" height="11" transform="rotate(0,238.5,139.5)"/><rect x="233" y="145" width="11" height="11" transform="rotate(0,238.5,150.5)"/><rect x="233" y="156" width="11" height="11" transform="rotate(0,238.5,161.5)"/><rect x="233" y="178" width="11" height="11" transform="rotate(0,238.5,183.5)"/><rect x="233" y="233" width="11" height="11" transform="rotate(0,238.5,238.5)"/><rect x="233" y="244" width="11" height="11" transform="rotate(0,238.5,249.5)"/><rect x="233" y="266" width="11" height="11" transform="rotate(0,238.5,271.5)"/><rect x="233" y="288" width="11" height="11" transform="rotate(0,238.5,293.5)"/><rect x="233" y="299" width="11" height="11" transform="rotate(0,238.5,304.5)"/><rect x="233" y="321" width="11" height="11" transform="rotate(0,238.5,326.5)"/><rect x="233" y="365" width="11" height="11" transform="rotate(0,238.5,370.5)"/><rect x="233" y="398" width="11" height="11" transform="rotate(0,238.5,403.5)"/><rect x="233" y="420" width="11" height="11" transform="rotate(0,238.5,425.5)"/><rect x="233" y="431" width="11" height="11" transform="rotate(0,238.5,436.5)"/><rect x="244" y="24" width="11" height="11" transform="rotate(0,249.5,29.5)"/><rect x="244" y="46" width="11" height="11" transform="rotate(0,249.5,51.5)"/><rect x="244" y="57" width="11" height="11" transform="rotate(0,249.5,62.5)"/><rect x="244" y="68" width="11" height="11" transform="rotate(0,249.5,73.5)"/><rect x="244" y="79" width="11" height="11" transform="rotate(0,249.5,84.5)"/><rect x="244" y="90" width="11" height="11" transform="rotate(0,249.5,95.5)"/><rect x="244" y="123" width="11" height="11" transform="rotate(0,249.5,128.5)"/><rect x="244" y="167" width="11" height="11" transform="rotate(0,249.5,172.5)"/><rect x="244" y="200" width="11" height="11" transform="rotate(0,249.5,205.5)"/><rect x="244" y="211" width="11" height="11" transform="rotate(0,249.5,216.5)"/><rect x="244" y="222" width="11" height="11" transform="rotate(0,249.5,227.5)"/><rect x="244" y="244" width="11" height="11" transform="rotate(0,249.5,249.5)"/><rect x="244" y="255" width="11" height="11" transform="rotate(0,249.5,260.5)"/><rect x="244" y="266" width="11" height="11" transform="rotate(0,249.5,271.5)"/><rect x="244" y="277" width="11" height="11" transform="rotate(0,249.5,282.5)"/><rect x="244" y="288" width="11" height="11" transform="rotate(0,249.5,293.5)"/><rect x="244" y="310" width="11" height="11" transform="rotate(0,249.5,315.5)"/><rect x="244" y="321" width="11" height="11" transform="rotate(0,249.5,326.5)"/><rect x="244" y="354" width="11" height="11" transform="rotate(0,249.5,359.5)"/><rect x="244" y="376" width="11" height="11" transform="rotate(0,249.5,381.5)"/><rect x="244" y="431" width="11" height="11" transform="rotate(0,249.5,436.5)"/><rect x="244" y="442" width="11" height="11" transform="rotate(0,249.5,447.5)"/><rect x="244" y="464" width="11" height="11" transform="rotate(0,249.5,469.5)"/><rect x="255" y="24" width="11" height="11" transform="rotate(0,260.5,29.5)"/><rect x="255" y="35" width="11" height="11" transform="rotate(0,260.5,40.5)"/><rect x="255" y="46" width="11" height="11" transform="rotate(0,260.5,51.5)"/><rect x="255" y="57" width="11" height="11" transform="rotate(0,260.5,62.5)"/><rect x="255" y="68" width="11" height="11" transform="rotate(0,260.5,73.5)"/><rect x="255" y="112" width="11" height="11" transform="rotate(0,260.5,117.5)"/><rect x="255" y="145" width="11" height="11" transform="rotate(0,260.5,150.5)"/><rect x="255" y="156" width="11" height="11" transform="rotate(0,260.5,161.5)"/><rect x="255" y="167" width="11" height="11" transform="rotate(0,260.5,172.5)"/><rect x="255" y="178" width="11" height="11" transform="rotate(0,260.5,183.5)"/><rect x="255" y="189" width="11" height="11" transform="rotate(0,260.5,194.5)"/><rect x="255" y="200" width="11" height="11" transform="rotate(0,260.5,205.5)"/><rect x="255" y="233" width="11" height="11" transform="rotate(0,260.5,238.5)"/><rect x="255" y="244" width="11" height="11" transform="rotate(0,260.5,249.5)"/><rect x="255" y="255" width="11" height="11" transform="rotate(0,260.5,260.5)"/><rect x="255" y="266" width="11" height="11" transform="rotate(0,260.5,271.5)"/><rect x="255" y="277" width="11" height="11" transform="rotate(0,260.5,282.5)"/><rect x="255" y="299" width="11" height="11" transform="rotate(0,260.5,304.5)"/><rect x="255" y="310" width="11" height="11" transform="rotate(0,260.5,315.5)"/><rect x="255" y="321" width="11" height="11" transform="rotate(0,260.5,326.5)"/><rect x="255" y="365" width="11" height="11" transform="rotate(0,260.5,370.5)"/><rect x="255" y="409" width="11" height="11" transform="rotate(0,260.5,414.5)"/><rect x="255" y="420" width="11" height="11" transform="rotate(0,260.5,425.5)"/><rect x="255" y="431" width="11" height="11" transform="rotate(0,260.5,436.5)"/><rect x="255" y="442" width="11" height="11" transform="rotate(0,260.5,447.5)"/><rect x="266" y="24" width="11" height="11" transform="rotate(0,271.5,29.5)"/><rect x="266" y="35" width="11" height="11" transform="rotate(0,271.5,40.5)"/><rect x="266" y="46" width="11" height="11" transform="rotate(0,271.5,51.5)"/><rect x="266" y="90" width="11" height="11" transform="rotate(0,271.5,95.5)"/><rect x="266" y="112" width="11" height="11" transform="rotate(0,271.5,117.5)"/><rect x="266" y="134" width="11" height="11" transform="rotate(0,271.5,139.5)"/><rect x="266" y="145" width="11" height="11" transform="rotate(0,271.5,150.5)"/><rect x="266" y="189" width="11" height="11" transform="rotate(0,271.5,194.5)"/><rect x="266" y="211" width="11" height="11" transform="rotate(0,271.5,216.5)"/><rect x="266" y="222" width="11" height="11" transform="rotate(0,271.5,227.5)"/><rect x="266" y="233" width="11" height="11" transform="rotate(0,271.5,238.5)"/><rect x="266" y="244" width="11" height="11" transform="rotate(0,271.5,249.5)"/><rect x="266" y="266" width="11" height="11" transform="rotate(0,271.5,271.5)"/><rect x="266" y="288" width="11" height="11" transform="rotate(0,271.5,293.5)"/><rect x="266" y="321" width="11" height="11" transform="rotate(0,271.5,326.5)"/><rect x="266" y="376" width="11" height="11" transform="rotate(0,271.5,381.5)"/><rect x="266" y="398" width="11" height="11" transform="rotate(0,271.5,403.5)"/><rect x="266" y="431" width="11" height="11" transform="rotate(0,271.5,436.5)"/><rect x="277" y="35" width="11" height="11" transform="rotate(0,282.5,40.5)"/><rect x="277" y="46" width="11" height="11" transform="rotate(0,282.5,51.5)"/><rect x="277" y="68" width="11" height="11" transform="rotate(0,282.5,73.5)"/><rect x="277" y="79" width="11" height="11" transform="rotate(0,282.5,84.5)"/><rect x="277" y="123" width="11" height="11" transform="rotate(0,282.5,128.5)"/><rect x="277" y="134" width="11" height="11" transform="rotate(0,282.5,139.5)"/><rect x="277" y="156" width="11" height="11" transform="rotate(0,282.5,161.5)"/><rect x="277" y="167" width="11" height="11" transform="rotate(0,282.5,172.5)"/><rect x="277" y="178" width="11" height="11" transform="rotate(0,282.5,183.5)"/><rect x="277" y="189" width="11" height="11" transform="rotate(0,282.5,194.5)"/><rect x="277" y="244" width="11" height="11" transform="rotate(0,282.5,249.5)"/><rect x="277" y="277" width="11" height="11" transform="rotate(0,282.5,282.5)"/><rect x="277" y="310" width="11" height="11" transform="rotate(0,282.5,315.5)"/><rect x="277" y="321" width="11" height="11" transform="rotate(0,282.5,326.5)"/><rect x="277" y="332" width="11" height="11" transform="rotate(0,282.5,337.5)"/><rect x="277" y="387" width="11" height="11" transform="rotate(0,282.5,392.5)"/><rect x="277" y="398" width="11" height="11" transform="rotate(0,282.5,403.5)"/><rect x="277" y="409" width="11" height="11" transform="rotate(0,282.5,414.5)"/><rect x="277" y="431" width="11" height="11" transform="rotate(0,282.5,436.5)"/><rect x="288" y="24" width="11" height="11" transform="rotate(0,293.5,29.5)"/><rect x="288" y="46" width="11" height="11" transform="rotate(0,293.5,51.5)"/><rect x="288" y="68" width="11" height="11" transform="rotate(0,293.5,73.5)"/><rect x="288" y="79" width="11" height="11" transform="rotate(0,293.5,84.5)"/><rect x="288" y="90" width="11" height="11" transform="rotate(0,293.5,95.5)"/><rect x="288" y="123" width="11" height="11" transform="rotate(0,293.5,128.5)"/><rect x="288" y="167" width="11" height="11" transform="rotate(0,293.5,172.5)"/><rect x="288" y="222" width="11" height="11" transform="rotate(0,293.5,227.5)"/><rect x="288" y="233" width="11" height="11" transform="rotate(0,293.5,238.5)"/><rect x="288" y="244" width="11" height="11" transform="rotate(0,293.5,249.5)"/><rect x="288" y="255" width="11" height="11" transform="rotate(0,293.5,260.5)"/><rect x="288" y="277" width="11" height="11" transform="rotate(0,293.5,282.5)"/><rect x="288" y="288" width="11" height="11" transform="rotate(0,293.5,293.5)"/><rect x="288" y="376" width="11" height="11" transform="rotate(0,293.5,381.5)"/><rect x="288" y="398" width="11" height="11" transform="rotate(0,293.5,403.5)"/><rect x="288" y="409" width="11" height="11" transform="rotate(0,293.5,414.5)"/><rect x="288" y="420" width="11" height="11" transform="rotate(0,293.5,425.5)"/><rect x="288" y="453" width="11" height="11" transform="rotate(0,293.5,458.5)"/><rect x="288" y="464" width="11" height="11" transform="rotate(0,293.5,469.5)"/><rect x="299" y="35" width="11" height="11" transform="rotate(0,304.5,40.5)"/><rect x="299" y="46" width="11" height="11" transform="rotate(0,304.5,51.5)"/><rect x="299" y="68" width="11" height="11" transform="rotate(0,304.5,73.5)"/><rect x="299" y="101" width="11" height="11" transform="rotate(0,304.5,106.5)"/><rect x="299" y="123" width="11" height="11" transform="rotate(0,304.5,128.5)"/><rect x="299" y="156" width="11" height="11" transform="rotate(0,304.5,161.5)"/><rect x="299" y="178" width="11" height="11" transform="rotate(0,304.5,183.5)"/><rect x="299" y="211" width="11" height="11" transform="rotate(0,304.5,216.5)"/><rect x="299" y="233" width="11" height="11" transform="rotate(0,304.5,238.5)"/><rect x="299" y="244" width="11" height="11" transform="rotate(0,304.5,249.5)"/><rect x="299" y="255" width="11" height="11" transform="rotate(0,304.5,260.5)"/><rect x="299" y="277" width="11" height="11" transform="rotate(0,304.5,282.5)"/><rect x="299" y="299" width="11" height="11" transform="rotate(0,304.5,304.5)"/><rect x="299" y="310" width="11" height="11" transform="rotate(0,304.5,315.5)"/><rect x="299" y="321" width="11" height="11" transform="rotate(0,304.5,326.5)"/><rect x="299" y="332" width="11" height="11" transform="rotate(0,304.5,337.5)"/><rect x="299" y="354" width="11" height="11" transform="rotate(0,304.5,359.5)"/><rect x="299" y="365" width="11" height="11" transform="rotate(0,304.5,370.5)"/><rect x="299" y="387" width="11" height="11" transform="rotate(0,304.5,392.5)"/><rect x="299" y="409" width="11" height="11" transform="rotate(0,304.5,414.5)"/><rect x="299" y="420" width="11" height="11" transform="rotate(0,304.5,425.5)"/><rect x="299" y="431" width="11" height="11" transform="rotate(0,304.5,436.5)"/><rect x="299" y="464" width="11" height="11" transform="rotate(0,304.5,469.5)"/><rect x="310" y="24" width="11" height="11" transform="rotate(0,315.5,29.5)"/><rect x="310" y="35" width="11" height="11" transform="rotate(0,315.5,40.5)"/><rect x="310" y="46" width="11" height="11" transform="rotate(0,315.5,51.5)"/><rect x="310" y="57" width="11" height="11" transform="rotate(0,315.5,62.5)"/><rect x="310" y="68" width="11" height="11" transform="rotate(0,315.5,73.5)"/><rect x="310" y="90" width="11" height="11" transform="rotate(0,315.5,95.5)"/><rect x="310" y="101" width="11" height="11" transform="rotate(0,315.5,106.5)"/><rect x="310" y="123" width="11" height="11" transform="rotate(0,315.5,128.5)"/><rect x="310" y="145" width="11" height="11" transform="rotate(0,315.5,150.5)"/><rect x="310" y="167" width="11" height="11" transform="rotate(0,315.5,172.5)"/><rect x="310" y="178" width="11" height="11" transform="rotate(0,315.5,183.5)"/><rect x="310" y="200" width="11" height="11" transform="rotate(0,315.5,205.5)"/><rect x="310" y="233" width="11" height="11" transform="rotate(0,315.5,238.5)"/><rect x="310" y="266" width="11" height="11" transform="rotate(0,315.5,271.5)"/><rect x="310" y="299" width="11" height="11" transform="rotate(0,315.5,304.5)"/><rect x="310" y="310" width="11" height="11" transform="rotate(0,315.5,315.5)"/><rect x="310" y="321" width="11" height="11" transform="rotate(0,315.5,326.5)"/><rect x="310" y="332" width="11" height="11" transform="rotate(0,315.5,337.5)"/><rect x="310" y="376" width="11" height="11" transform="rotate(0,315.5,381.5)"/><rect x="310" y="409" width="11" height="11" transform="rotate(0,315.5,414.5)"/><rect x="310" y="420" width="11" height="11" transform="rotate(0,315.5,425.5)"/><rect x="321" y="24" width="11" height="11" transform="rotate(0,326.5,29.5)"/><rect x="321" y="46" width="11" height="11" transform="rotate(0,326.5,51.5)"/><rect x="321" y="79" width="11" height="11" transform="rotate(0,326.5,84.5)"/><rect x="321" y="101" width="11" height="11" transform="rotate(0,326.5,106.5)"/><rect x="321" y="112" width="11" height="11" transform="rotate(0,326.5,117.5)"/><rect x="321" y="233" width="11" height="11" transform="rotate(0,326.5,238.5)"/><rect x="321" y="266" width="11" height="11" transform="rotate(0,326.5,271.5)"/><rect x="321" y="288" width="11" height="11" transform="rotate(0,326.5,293.5)"/><rect x="321" y="321" width="11" height="11" transform="rotate(0,326.5,326.5)"/><rect x="321" y="332" width="11" height="11" transform="rotate(0,326.5,337.5)"/><rect x="321" y="365" width="11" height="11" transform="rotate(0,326.5,370.5)"/><rect x="321" y="398" width="11" height="11" transform="rotate(0,326.5,403.5)"/><rect x="321" y="409" width="11" height="11" transform="rotate(0,326.5,414.5)"/><rect x="321" y="431" width="11" height="11" transform="rotate(0,326.5,436.5)"/><rect x="321" y="442" width="11" height="11" transform="rotate(0,326.5,447.5)"/><rect x="332" y="46" width="11" height="11" transform="rotate(0,337.5,51.5)"/><rect x="332" y="57" width="11" height="11" transform="rotate(0,337.5,62.5)"/><rect x="332" y="68" width="11" height="11" transform="rotate(0,337.5,73.5)"/><rect x="332" y="90" width="11" height="11" transform="rotate(0,337.5,95.5)"/><rect x="332" y="101" width="11" height="11" transform="rotate(0,337.5,106.5)"/><rect x="332" y="112" width="11" height="11" transform="rotate(0,337.5,117.5)"/><rect x="332" y="123" width="11" height="11" transform="rotate(0,337.5,128.5)"/><rect x="332" y="156" width="11" height="11" transform="rotate(0,337.5,161.5)"/><rect x="332" y="167" width="11" height="11" transform="rotate(0,337.5,172.5)"/><rect x="332" y="178" width="11" height="11" transform="rotate(0,337.5,183.5)"/><rect x="332" y="200" width="11" height="11" transform="rotate(0,337.5,205.5)"/><rect x="332" y="266" width="11" height="11" transform="rotate(0,337.5,271.5)"/><rect x="332" y="277" width="11" height="11" transform="rotate(0,337.5,282.5)"/><rect x="332" y="288" width="11" height="11" transform="rotate(0,337.5,293.5)"/><rect x="332" y="299" width="11" height="11" transform="rotate(0,337.5,304.5)"/><rect x="332" y="310" width="11" height="11" transform="rotate(0,337.5,315.5)"/><rect x="332" y="321" width="11" height="11" transform="rotate(0,337.5,326.5)"/><rect x="332" y="332" width="11" height="11" transform="rotate(0,337.5,337.5)"/><rect x="332" y="343" width="11" height="11" transform="rotate(0,337.5,348.5)"/><rect x="332" y="365" width="11" height="11" transform="rotate(0,337.5,370.5)"/><rect x="332" y="431" width="11" height="11" transform="rotate(0,337.5,436.5)"/><rect x="332" y="442" width="11" height="11" transform="rotate(0,337.5,447.5)"/><rect x="332" y="464" width="11" height="11" transform="rotate(0,337.5,469.5)"/><rect x="343" y="24" width="11" height="11" transform="rotate(0,348.5,29.5)"/><rect x="343" y="35" width="11" height="11" transform="rotate(0,348.5,40.5)"/><rect x="343" y="57" width="11" height="11" transform="rotate(0,348.5,62.5)"/><rect x="343" y="68" width="11" height="11" transform="rotate(0,348.5,73.5)"/><rect x="343" y="101" width="11" height="11" transform="rotate(0,348.5,106.5)"/><rect x="343" y="134" width="11" height="11" transform="rotate(0,348.5,139.5)"/><rect x="343" y="156" width="11" height="11" transform="rotate(0,348.5,161.5)"/><rect x="343" y="167" width="11" height="11" transform="rotate(0,348.5,172.5)"/><rect x="343" y="200" width="11" height="11" transform="rotate(0,348.5,205.5)"/><rect x="343" y="255" width="11" height="11" transform="rotate(0,348.5,260.5)"/><rect x="343" y="266" width="11" height="11" transform="rotate(0,348.5,271.5)"/><rect x="343" y="354" width="11" height="11" transform="rotate(0,348.5,359.5)"/><rect x="343" y="365" width="11" height="11" transform="rotate(0,348.5,370.5)"/><rect x="343" y="376" width="11" height="11" transform="rotate(0,348.5,381.5)"/><rect x="343" y="398" width="11" height="11" transform="rotate(0,348.5,403.5)"/><rect x="343" y="409" width="11" height="11" transform="rotate(0,348.5,414.5)"/><rect x="343" y="420" width="11" height="11" transform="rotate(0,348.5,425.5)"/><rect x="343" y="431" width="11" height="11" transform="rotate(0,348.5,436.5)"/><rect x="343" y="442" width="11" height="11" transform="rotate(0,348.5,447.5)"/><rect x="343" y="464" width="11" height="11" transform="rotate(0,348.5,469.5)"/><rect x="354" y="24" width="11" height="11" transform="rotate(0,359.5,29.5)"/><rect x="354" y="35" width="11" height="11" transform="rotate(0,359.5,40.5)"/><rect x="354" y="57" width="11" height="11" transform="rotate(0,359.5,62.5)"/><rect x="354" y="68" width="11" height="11" transform="rotate(0,359.5,73.5)"/><rect x="354" y="79" width="11" height="11" transform="rotate(0,359.5,84.5)"/><rect x="354" y="90" width="11" height="11" transform="rotate(0,359.5,95.5)"/><rect x="354" y="101" width="11" height="11" transform="rotate(0,359.5,106.5)"/><rect x="354" y="112" width="11" height="11" transform="rotate(0,359.5,117.5)"/><rect x="354" y="123" width="11" height="11" transform="rotate(0,359.5,128.5)"/><rect x="354" y="134" width="11" height="11" transform="rotate(0,359.5,139.5)"/><rect x="354" y="145" width="11" height="11" transform="rotate(0,359.5,150.5)"/><rect x="354" y="156" width="11" height="11" transform="rotate(0,359.5,161.5)"/><rect x="354" y="189" width="11" height="11" transform="rotate(0,359.5,194.5)"/><rect x="354" y="222" width="11" height="11" transform="rotate(0,359.5,227.5)"/><rect x="354" y="255" width="11" height="11" transform="rotate(0,359.5,260.5)"/><rect x="354" y="266" width="11" height="11" transform="rotate(0,359.5,271.5)"/><rect x="354" y="288" width="11" height="11" transform="rotate(0,359.5,293.5)"/><rect x="354" y="299" width="11" height="11" transform="rotate(0,359.5,304.5)"/><rect x="354" y="321" width="11" height="11" transform="rotate(0,359.5,326.5)"/><rect x="354" y="354" width="11" height="11" transform="rotate(0,359.5,359.5)"/><rect x="354" y="365" width="11" height="11" transform="rotate(0,359.5,370.5)"/><rect x="354" y="387" width="11" height="11" transform="rotate(0,359.5,392.5)"/><rect x="354" y="420" width="11" height="11" transform="rotate(0,359.5,425.5)"/><rect x="354" y="431" width="11" height="11" transform="rotate(0,359.5,436.5)"/><rect x="354" y="442" width="11" height="11" transform="rotate(0,359.5,447.5)"/><rect x="354" y="464" width="11" height="11" transform="rotate(0,359.5,469.5)"/><rect x="365" y="24" width="11" height="11" transform="rotate(0,370.5,29.5)"/><rect x="365" y="46" width="11" height="11" transform="rotate(0,370.5,51.5)"/><rect x="365" y="57" width="11" height="11" transform="rotate(0,370.5,62.5)"/><rect x="365" y="68" width="11" height="11" transform="rotate(0,370.5,73.5)"/><rect x="365" y="101" width="11" height="11" transform="rotate(0,370.5,106.5)"/><rect x="365" y="112" width="11" height="11" transform="rotate(0,370.5,117.5)"/><rect x="365" y="123" width="11" height="11" transform="rotate(0,370.5,128.5)"/><rect x="365" y="134" width="11" height="11" transform="rotate(0,370.5,139.5)"/><rect x="365" y="167" width="11" height="11" transform="rotate(0,370.5,172.5)"/><rect x="365" y="178" width="11" height="11" transform="rotate(0,370.5,183.5)"/><rect x="365" y="200" width="11" height="11" transform="rotate(0,370.5,205.5)"/><rect x="365" y="211" width="11" height="11" transform="rotate(0,370.5,216.5)"/><rect x="365" y="233" width="11" height="11" transform="rotate(0,370.5,238.5)"/><rect x="365" y="277" width="11" height="11" transform="rotate(0,370.5,282.5)"/><rect x="365" y="310" width="11" height="11" transform="rotate(0,370.5,315.5)"/><rect x="365" y="376" width="11" height="11" transform="rotate(0,370.5,381.5)"/><rect x="365" y="398" width="11" height="11" transform="rotate(0,370.5,403.5)"/><rect x="365" y="420" width="11" height="11" transform="rotate(0,370.5,425.5)"/><rect x="365" y="431" width="11" height="11" transform="rotate(0,370.5,436.5)"/><rect x="365" y="453" width="11" height="11" transform="rotate(0,370.5,458.5)"/><rect x="376" y="24" width="11" height="11" transform="rotate(0,381.5,29.5)"/><rect x="376" y="46" width="11" height="11" transform="rotate(0,381.5,51.5)"/><rect x="376" y="68" width="11" height="11" transform="rotate(0,381.5,73.5)"/><rect x="376" y="79" width="11" height="11" transform="rotate(0,381.5,84.5)"/><rect x="376" y="90" width="11" height="11" transform="rotate(0,381.5,95.5)"/><rect x="376" y="167" width="11" height="11" transform="rotate(0,381.5,172.5)"/><rect x="376" y="178" width="11" height="11" transform="rotate(0,381.5,183.5)"/><rect x="376" y="222" width="11" height="11" transform="rotate(0,381.5,227.5)"/><rect x="376" y="233" width="11" height="11" transform="rotate(0,381.5,238.5)"/><rect x="376" y="244" width="11" height="11" transform="rotate(0,381.5,249.5)"/><rect x="376" y="277" width="11" height="11" transform="rotate(0,381.5,282.5)"/><rect x="376" y="288" width="11" height="11" transform="rotate(0,381.5,293.5)"/><rect x="376" y="299" width="11" height="11" transform="rotate(0,381.5,304.5)"/><rect x="376" y="321" width="11" height="11" transform="rotate(0,381.5,326.5)"/><rect x="376" y="332" width="11" height="11" transform="rotate(0,381.5,337.5)"/><rect x="376" y="343" width="11" height="11" transform="rotate(0,381.5,348.5)"/><rect x="376" y="354" width="11" height="11" transform="rotate(0,381.5,359.5)"/><rect x="376" y="365" width="11" height="11" transform="rotate(0,381.5,370.5)"/><rect x="376" y="376" width="11" height="11" transform="rotate(0,381.5,381.5)"/><rect x="376" y="387" width="11" height="11" transform="rotate(0,381.5,392.5)"/><rect x="376" y="398" width="11" height="11" transform="rotate(0,381.5,403.5)"/><rect x="376" y="409" width="11" height="11" transform="rotate(0,381.5,414.5)"/><rect x="376" y="420" width="11" height="11" transform="rotate(0,381.5,425.5)"/><rect x="376" y="442" width="11" height="11" transform="rotate(0,381.5,447.5)"/><rect x="376" y="453" width="11" height="11" transform="rotate(0,381.5,458.5)"/><rect x="376" y="464" width="11" height="11" transform="rotate(0,381.5,469.5)"/><rect x="387" y="112" width="11" height="11" transform="rotate(0,392.5,117.5)"/><rect x="387" y="134" width="11" height="11" transform="rotate(0,392.5,139.5)"/><rect x="387" y="145" width="11" height="11" transform="rotate(0,392.5,150.5)"/><rect x="387" y="156" width="11" height="11" transform="rotate(0,392.5,161.5)"/><rect x="387" y="178" width="11" height="11" transform="rotate(0,392.5,183.5)"/><rect x="387" y="244" width="11" height="11" transform="rotate(0,392.5,249.5)"/><rect x="387" y="255" width="11" height="11" transform="rotate(0,392.5,260.5)"/><rect x="387" y="266" width="11" height="11" transform="rotate(0,392.5,271.5)"/><rect x="387" y="277" width="11" height="11" transform="rotate(0,392.5,282.5)"/><rect x="387" y="310" width="11" height="11" transform="rotate(0,392.5,315.5)"/><rect x="387" y="321" width="11" height="11" transform="rotate(0,392.5,326.5)"/><rect x="387" y="332" width="11" height="11" transform="rotate(0,392.5,337.5)"/><rect x="387" y="343" width="11" height="11" transform="rotate(0,392.5,348.5)"/><rect x="387" y="354" width="11" height="11" transform="rotate(0,392.5,359.5)"/><rect x="387" y="365" width="11" height="11" transform="rotate(0,392.5,370.5)"/><rect x="387" y="376" width="11" height="11" transform="rotate(0,392.5,381.5)"/><rect x="387" y="420" width="11" height="11" transform="rotate(0,392.5,425.5)"/><rect x="398" y="112" width="11" height="11" transform="rotate(0,403.5,117.5)"/><rect x="398" y="145" width="11" height="11" transform="rotate(0,403.5,150.5)"/><rect x="398" y="156" width="11" height="11" transform="rotate(0,403.5,161.5)"/><rect x="398" y="200" width="11" height="11" transform="rotate(0,403.5,205.5)"/><rect x="398" y="211" width="11" height="11" transform="rotate(0,403.5,216.5)"/><rect x="398" y="255" width="11" height="11" transform="rotate(0,403.5,260.5)"/><rect x="398" y="321" width="11" height="11" transform="rotate(0,403.5,326.5)"/><rect x="398" y="332" width="11" height="11" transform="rotate(0,403.5,337.5)"/><rect x="398" y="343" width="11" height="11" transform="rotate(0,403.5,348.5)"/><rect x="398" y="376" width="11" height="11" transform="rotate(0,403.5,381.5)"/><rect x="398" y="398" width="11" height="11" transform="rotate(0,403.5,403.5)"/><rect x="398" y="420" width="11" height="11" transform="rotate(0,403.5,425.5)"/><rect x="398" y="431" width="11" height="11" transform="rotate(0,403.5,436.5)"/><rect x="409" y="134" width="11" height="11" transform="rotate(0,414.5,139.5)"/><rect x="409" y="145" width="11" height="11" transform="rotate(0,414.5,150.5)"/><rect x="409" y="156" width="11" height="11" transform="rotate(0,414.5,161.5)"/><rect x="409" y="178" width="11" height="11" transform="rotate(0,414.5,183.5)"/><rect x="409" y="211" width="11" height="11" transform="rotate(0,414.5,216.5)"/><rect x="409" y="244" width="11" height="11" transform="rotate(0,414.5,249.5)"/><rect x="409" y="255" width="11" height="11" transform="rotate(0,414.5,260.5)"/><rect x="409" y="266" width="11" height="11" transform="rotate(0,414.5,271.5)"/><rect x="409" y="277" width="11" height="11" transform="rotate(0,414.5,282.5)"/><rect x="409" y="310" width="11" height="11" transform="rotate(0,414.5,315.5)"/><rect x="409" y="332" width="11" height="11" transform="rotate(0,414.5,337.5)"/><rect x="409" y="343" width="11" height="11" transform="rotate(0,414.5,348.5)"/><rect x="409" y="354" width="11" height="11" transform="rotate(0,414.5,359.5)"/><rect x="409" y="365" width="11" height="11" transform="rotate(0,414.5,370.5)"/><rect x="409" y="376" width="11" height="11" transform="rotate(0,414.5,381.5)"/><rect x="409" y="420" width="11" height="11" transform="rotate(0,414.5,425.5)"/><rect x="409" y="453" width="11" height="11" transform="rotate(0,414.5,458.5)"/><rect x="420" y="200" width="11" height="11" transform="rotate(0,425.5,205.5)"/><rect x="420" y="222" width="11" height="11" transform="rotate(0,425.5,227.5)"/><rect x="420" y="233" width="11" height="11" transform="rotate(0,425.5,238.5)"/><rect x="420" y="244" width="11" height="11" transform="rotate(0,425.5,249.5)"/><rect x="420" y="299" width="11" height="11" transform="rotate(0,425.5,304.5)"/><rect x="420" y="310" width="11" height="11" transform="rotate(0,425.5,315.5)"/><rect x="420" y="332" width="11" height="11" transform="rotate(0,425.5,337.5)"/><rect x="420" y="343" width="11" height="11" transform="rotate(0,425.5,348.5)"/><rect x="420" y="365" width="11" height="11" transform="rotate(0,425.5,370.5)"/><rect x="420" y="376" width="11" height="11" transform="rotate(0,425.5,381.5)"/><rect x="420" y="387" width="11" height="11" transform="rotate(0,425.5,392.5)"/><rect x="420" y="398" width="11" height="11" transform="rotate(0,425.5,403.5)"/><rect x="420" y="409" width="11" height="11" transform="rotate(0,425.5,414.5)"/><rect x="420" y="420" width="11" height="11" transform="rotate(0,425.5,425.5)"/><rect x="420" y="431" width="11" height="11" transform="rotate(0,425.5,436.5)"/><rect x="420" y="453" width="11" height="11" transform="rotate(0,425.5,458.5)"/><rect x="420" y="464" width="11" height="11" transform="rotate(0,425.5,469.5)"/><rect x="431" y="200" width="11" height="11" transform="rotate(0,436.5,205.5)"/><rect x="431" y="211" width="11" height="11" transform="rotate(0,436.5,216.5)"/><rect x="431" y="233" width="11" height="11" transform="rotate(0,436.5,238.5)"/><rect x="431" y="255" width="11" height="11" transform="rotate(0,436.5,260.5)"/><rect x="431" y="277" width="11" height="11" transform="rotate(0,436.5,282.5)"/><rect x="431" y="310" width="11" height="11" transform="rotate(0,436.5,315.5)"/><rect x="431" y="321" width="11" height="11" transform="rotate(0,436.5,326.5)"/><rect x="431" y="343" width="11" height="11" transform="rotate(0,436.5,348.5)"/><rect x="431" y="354" width="11" height="11" transform="rotate(0,436.5,359.5)"/><rect x="431" y="365" width="11" height="11" transform="rotate(0,436.5,370.5)"/><rect x="431" y="376" width="11" height="11" transform="rotate(0,436.5,381.5)"/><rect x="431" y="409" width="11" height="11" transform="rotate(0,436.5,414.5)"/><rect x="431" y="442" width="11" height="11" transform="rotate(0,436.5,447.5)"/><rect x="442" y="123" width="11" height="11" transform="rotate(0,447.5,128.5)"/><rect x="442" y="156" width="11" height="11" transform="rotate(0,447.5,161.5)"/><rect x="442" y="167" width="11" height="11" transform="rotate(0,447.5,172.5)"/><rect x="442" y="178" width="11" height="11" transform="rotate(0,447.5,183.5)"/><rect x="442" y="189" width="11" height="11" transform="rotate(0,447.5,194.5)"/><rect x="442" y="200" width="11" height="11" transform="rotate(0,447.5,205.5)"/><rect x="442" y="211" width="11" height="11" transform="rotate(0,447.5,216.5)"/><rect x="442" y="255" width="11" height="11" transform="rotate(0,447.5,260.5)"/><rect x="442" y="266" width="11" height="11" transform="rotate(0,447.5,271.5)"/><rect x="442" y="310" width="11" height="11" transform="rotate(0,447.5,315.5)"/><rect x="442" y="321" width="11" height="11" transform="rotate(0,447.5,326.5)"/><rect x="442" y="343" width="11" height="11" transform="rotate(0,447.5,348.5)"/><rect x="442" y="387" width="11" height="11" transform="rotate(0,447.5,392.5)"/><rect x="442" y="398" width="11" height="11" transform="rotate(0,447.5,403.5)"/><rect x="442" y="409" width="11" height="11" transform="rotate(0,447.5,414.5)"/><rect x="442" y="420" width="11" height="11" transform="rotate(0,447.5,425.5)"/><rect x="453" y="112" width="11" height="11" transform="rotate(0,458.5,117.5)"/><rect x="453" y="145" width="11" height="11" transform="rotate(0,458.5,150.5)"/><rect x="453" y="156" width="11" height="11" transform="rotate(0,458.5,161.5)"/><rect x="453" y="167" width="11" height="11" transform="rotate(0,458.5,172.5)"/><rect x="453" y="178" width="11" height="11" transform="rotate(0,458.5,183.5)"/><rect x="453" y="189" width="11" height="11" transform="rotate(0,458.5,194.5)"/><rect x="453" y="211" width="11" height="11" transform="rotate(0,458.5,216.5)"/><rect x="453" y="233" width="11" height="11" transform="rotate(0,458.5,238.5)"/><rect x="453" y="255" width="11" height="11" transform="rotate(0,458.5,260.5)"/><rect x="453" y="266" width="11" height="11" transform="rotate(0,458.5,271.5)"/><rect x="453" y="288" width="11" height="11" transform="rotate(0,458.5,293.5)"/><rect x="453" y="310" width="11" height="11" transform="rotate(0,458.5,315.5)"/><rect x="453" y="321" width="11" height="11" transform="rotate(0,458.5,326.5)"/><rect x="453" y="332" width="11" height="11" transform="rotate(0,458.5,337.5)"/><rect x="453" y="387" width="11" height="11" transform="rotate(0,458.5,392.5)"/><rect x="453" y="398" width="11" height="11" transform="rotate(0,458.5,403.5)"/><rect x="453" y="420" width="11" height="11" transform="rotate(0,458.5,425.5)"/><rect x="453" y="442" width="11" height="11" transform="rotate(0,458.5,447.5)"/><rect x="453" y="464" width="11" height="11" transform="rotate(0,458.5,469.5)"/><rect x="464" y="134" width="11" height="11" transform="rotate(0,469.5,139.5)"/><rect x="464" y="145" width="11" height="11" transform="rotate(0,469.5,150.5)"/><rect x="464" y="189" width="11" height="11" transform="rotate(0,469.5,194.5)"/><rect x="464" y="200" width="11" height="11" transform="rotate(0,469.5,205.5)"/><rect x="464" y="211" width="11" height="11" transform="rotate(0,469.5,216.5)"/><rect x="464" y="222" width="11" height="11" transform="rotate(0,469.5,227.5)"/><rect x="464" y="233" width="11" height="11" transform="rotate(0,469.5,238.5)"/><rect x="464" y="266" width="11" height="11" transform="rotate(0,469.5,271.5)"/><rect x="464" y="288" width="11" height="11" transform="rotate(0,469.5,293.5)"/><rect x="464" y="299" width="11" height="11" transform="rotate(0,469.5,304.5)"/><rect x="464" y="310" width="11" height="11" transform="rotate(0,469.5,315.5)"/><rect x="464" y="321" width="11" height="11" transform="rotate(0,469.5,326.5)"/><rect x="464" y="332" width="11" height="11" transform="rotate(0,469.5,337.5)"/><rect x="464" y="343" width="11" height="11" transform="rotate(0,469.5,348.5)"/><rect x="464" y="365" width="11" height="11" transform="rotate(0,469.5,370.5)"/><rect x="464" y="398" width="11" height="11" transform="rotate(0,469.5,403.5)"/><rect x="464" y="409" width="11" height="11" transform="rotate(0,469.5,414.5)"/><rect x="464" y="420" width="11" height="11" transform="rotate(0,469.5,425.5)"/><rect x="464" y="442" width="11" height="11" transform="rotate(0,469.5,447.5)"/><path clip-rule="evenodd" d="M 24 24v 77h 77v -77zM 35 35h 55v 55h -55z" transform="rotate(0,62.5,62.5)"/><rect x="46" y="46" width="33" height="33" transform="rotate(0,62.5,62.5)"/><path clip-rule="evenodd" d="M 398 24v 77h 77v -77zM 409 35h 55v 55h -55z" transform="rotate(90,436.5,62.5)"/><rect x="420" y="46" width="33" height="33" transform="rotate(90,436.5,62.5)"/><path clip-rule="evenodd" d="M 24 398v 77h 77v -77zM 35 409h 55v 55h -55z" transform="rotate(-90,62.5,436.5)"/><rect x="46" y="420" width="33" height="33" transform="rotate(-90,62.5,436.5)"/></clipPath></defs><rect x="0" y="0" height="500" width="500" clip-path="url('#clip-path-background-color')" fill="#fff"/><rect x="0" y="0" height="500" width="500" clip-path="url('#clip-path-dot-color')" fill="#000000"/></svg>